<svg xmlns="http://www.w3.org/2000/svg" width="1200" height="1200" viewBox="0 0 1200 1200"><rect x="300.0" y="72.0" width="600.0" height="600.0" rx="120.0" fill="#151612"/><path d="M516.0,186.0 H414.0 V288.0" fill="none" stroke="#C8FF00" stroke-width="27.0"/><path d="M684.0,186.0 H786.0 V288.0" fill="none" stroke="#C8FF00" stroke-width="27.0"/><path d="M414.0,456.0 V558.0 H516.0" fill="none" stroke="#C8FF00" stroke-width="27.0"/><path d="M786.0,456.0 V558.0 H684.0" fill="none" stroke="#C8FF00" stroke-width="27.0"/><path d="M597.0,234.0 H654.0 L561.0,510.0 H504.0 Z" fill="#C8FF00"/><path d="M1372 82Q1266 27 1151.0 -1.0Q1036 -29 911 -29Q538 -29 320.0 179.5Q102 388 102 745Q102 1103 320.0 1311.5Q538 1520 911 1520Q1036 1520 1151.0 1492.0Q1266 1464 1372 1409V1100Q1265 1173 1161.0 1207.0Q1057 1241 942 1241Q736 1241 618.0 1109.0Q500 977 500 745Q500 514 618.0 382.0Q736 250 942 250Q1057 250 1161.0 284.0Q1265 318 1372 391Z" fill="#FFFFFF" transform="translate(120.000,965.760) scale(0.119883,-0.119883)"/><path d="M188 1493H573V291H1249V0H188Z" fill="#FFFFFF" transform="translate(303.352,965.760) scale(0.119883,-0.119883)"/><path d="M188 1493H573V598Q573 413 633.5 333.5Q694 254 831 254Q969 254 1029.5 333.5Q1090 413 1090 598V1493H1475V598Q1475 281 1316.0 126.0Q1157 -29 831 -29Q506 -29 347.0 126.0Q188 281 188 598Z" fill="#FFFFFF" transform="translate(462.967,965.760) scale(0.119883,-0.119883)"/><path d="M759.2200546875,770.4 H784.3000546875 L743.3800546875001,965.76 H718.3000546875 Z" fill="#C8FF00"/><path d="M10 1493H1386V1202H891V0H506V1202H10Z" fill="#FFFFFF" transform="translate(837.100,965.760) scale(0.119883,-0.119883)"/><path d="M735 831Q856 831 908.5 876.0Q961 921 961 1024Q961 1126 908.5 1170.0Q856 1214 735 1214H573V831ZM573 565V0H188V1493H776Q1071 1493 1208.5 1394.0Q1346 1295 1346 1081Q1346 933 1274.5 838.0Q1203 743 1059 698Q1138 680 1200.5 616.5Q1263 553 1327 424L1536 0H1126L944 371Q889 483 832.5 524.0Q776 565 682 565Z" fill="#FFFFFF" transform="translate(1007.744,965.760) scale(0.119883,-0.119883)"/><path d="M188 1493H573V291H1249V0H188Z" fill="#FFFFFF" transform="translate(1199.968,965.760) scale(0.119883,-0.119883)"/></svg>
